<?xml version="1.0" encoding="UTF-8"?>
<svg id="Calque_2" data-name="Calque 2" xmlns="http://www.w3.org/2000/svg" xmlns:xlink="http://www.w3.org/1999/xlink" viewBox="0 0 285.59 49.14">
  <defs>
    <style>
      .cls-1 {
        fill: none;
      }

      .cls-2 {
        fill: url(#Dégradé_sans_nom_7);
      }

      .cls-3 {
        fill: #1d1d1b;
      }

      .cls-4 {
        fill: url(#Dégradé_sans_nom_7-2);
      }

      .cls-5 {
        fill: url(#Dégradé_sans_nom_7-4);
      }

      .cls-6 {
        fill: url(#Dégradé_sans_nom_7-3);
      }

      .cls-7 {
        fill: url(#Dégradé_sans_nom_7-6);
      }

      .cls-8 {
        fill: url(#Dégradé_sans_nom_7-5);
      }

      .cls-9 {
        fill: url(#Dégradé_sans_nom_7-7);
      }
    </style>
    <linearGradient id="Dégradé_sans_nom_7" data-name="Dégradé sans nom 7" x1="207.56" y1="12.58" x2="207.56" y2="44.91" gradientUnits="userSpaceOnUse">
      <stop offset="0" stop-color="#f39200"/>
      <stop offset="1" stop-color="#e84e0f"/>
    </linearGradient>
    <linearGradient id="Dégradé_sans_nom_7-2" data-name="Dégradé sans nom 7" x1="225.07" y1="16.54" x2="225.07" xlink:href="#Dégradé_sans_nom_7"/>
    <linearGradient id="Dégradé_sans_nom_7-3" data-name="Dégradé sans nom 7" x1="241.01" y1="16.86" x2="241.01" y2="44.6" xlink:href="#Dégradé_sans_nom_7"/>
    <linearGradient id="Dégradé_sans_nom_7-4" data-name="Dégradé sans nom 7" x1="256.02" y1="16.86" x2="256.02" y2="44.6" xlink:href="#Dégradé_sans_nom_7"/>
    <linearGradient id="Dégradé_sans_nom_7-5" data-name="Dégradé sans nom 7" x1="267.74" y1="16.86" x2="267.74" y2="44.6" xlink:href="#Dégradé_sans_nom_7"/>
    <linearGradient id="Dégradé_sans_nom_7-6" data-name="Dégradé sans nom 7" x1="279.75" y1="16.86" x2="279.75" y2="44.6" xlink:href="#Dégradé_sans_nom_7"/>
    <linearGradient id="Dégradé_sans_nom_7-7" data-name="Dégradé sans nom 7" x1="170.89" y1="0" x2="170.89" y2="49.14" xlink:href="#Dégradé_sans_nom_7"/>
  </defs>
  <g id="Calque_1-2" data-name="Calque 1">
    <path class="cls-3" d="M30.74,44.93h-1.12c-.76,0-1.24-.32-1.48-1.08l-3.51-10.38h-3.27v10.14c0,.84-.48,1.32-1.32,1.32h-1.12c-.88,0-1.32-.48-1.32-1.32v-25.31c0-.84.44-1.32,1.32-1.32h5.67c4.23,0,6.79,1.8,6.79,5.91v4.67c0,2.79-1.2,4.51-3.27,5.35l3.75,10.5c.28.88-.16,1.52-1.12,1.52ZM21.36,30.19h3.07c2.08,0,3.19-.84,3.19-3.31v-3.27c0-2.48-1.12-3.31-3.19-3.31h-3.07v9.9Z"/>
    <path class="cls-3" d="M48.31,44.93h-1.16c-.8,0-1.28-.4-1.44-1.2l-.96-5.39h-6.03l-.96,5.39c-.12.8-.64,1.2-1.4,1.2h-1c-.88,0-1.32-.52-1.16-1.44l5.03-25.31c.16-.8.68-1.2,1.44-1.2h2.24c.76,0,1.28.4,1.44,1.2l5.11,25.31c.2.92-.28,1.44-1.16,1.44ZM44.2,35.19l-2.44-13.49-2.43,13.49h4.87Z"/>
    <path class="cls-1" d="M107.57,20.3h-3.07v9.89h3.07c2.07,0,3.19-.84,3.19-3.31v-3.27c0-2.47-1.12-3.31-3.19-3.31Z"/>
    <polygon class="cls-1" points="41.71 21.7 39.27 35.18 44.14 35.18 41.71 21.7"/>
    <path class="cls-1" d="M9.93,38.77v-4.19c0-1.72-1-2.51-2.79-2.51h-3.39v9.57h3.39c1.87,0,2.79-.92,2.79-2.87Z"/>
    <path class="cls-1" d="M9.77,26.37v-3.23c0-1.95-.92-2.87-2.79-2.87h-3.23v8.62h3.23c1.79,0,2.79-.8,2.79-2.51Z"/>
    <path class="cls-1" d="M27.59,26.88v-3.27c0-2.47-1.12-3.31-3.19-3.31h-3.07v9.89h3.07c2.07,0,3.19-.84,3.19-3.31Z"/>
    <path d="M1.32,44.91h5.66c4.23,0,6.7-2.11,6.7-5.5v-4.59c0-2.03-.76-4.03-3.27-4.43,2.35-.28,3.11-2.47,3.11-4.39v-3.51c0-3.39-2.23-5.5-6.46-5.5H1.32c-.88,0-1.32.48-1.32,1.32v25.29c0,.84.44,1.32,1.32,1.32ZM3.75,20.26h3.23c1.87,0,2.79.92,2.79,2.87v3.23c0,1.72-1,2.51-2.79,2.51h-3.23v-8.62ZM3.75,32.07h3.39c1.79,0,2.79.8,2.79,2.51v4.19c0,1.95-.92,2.87-2.79,2.87h-3.39v-9.57Z"/>
    <path d="M61.16,30.16l-3.63-1.99c-1.6-.92-2.19-1.52-2.19-3.19v-1.91c0-2.23,1.08-3.11,2.99-3.11s2.99.88,2.99,3.11v2.47c0,.84.44,1.32,1.32,1.32h1.04c.88,0,1.32-.48,1.32-1.32v-3.11c0-4.03-2.79-5.74-6.62-5.74h-.08c-3.83,0-6.62,1.72-6.62,5.74v3.51c0,2.67,1.36,3.87,3.91,5.34l3.59,1.99c1.64.92,2.23,1.64,2.23,3.31v2.19c0,2.19-1.08,3.19-3.03,3.19s-3.03-1-3.03-3.19v-2.79c0-.84-.44-1.32-1.32-1.32h-1.04c-.88,0-1.32.48-1.32,1.32v3.43c0,4.23,2.43,5.82,6.66,5.82h.08c4.23,0,6.66-1.64,6.66-5.82v-3.87c0-2.67-1.52-4.03-3.91-5.38Z"/>
    <path d="M77.83,30.16l-3.63-1.99c-1.6-.92-2.19-1.52-2.19-3.19v-1.91c0-2.23,1.08-3.11,2.99-3.11s2.99.88,2.99,3.11v2.47c0,.84.44,1.32,1.32,1.32h1.04c.88,0,1.32-.48,1.32-1.32v-3.11c0-4.03-2.79-5.74-6.62-5.74h-.08c-3.83,0-6.62,1.72-6.62,5.74v3.51c0,2.67,1.36,3.87,3.91,5.34l3.59,1.99c1.64.92,2.23,1.64,2.23,3.31v2.19c0,2.19-1.08,3.19-3.03,3.19s-3.03-1-3.03-3.19v-2.79c0-.84-.44-1.32-1.32-1.32h-1.04c-.88,0-1.32.48-1.32,1.32v3.43c0,4.23,2.43,5.82,6.66,5.82h.08c4.23,0,6.66-1.64,6.66-5.82v-3.87c0-2.67-1.52-4.03-3.91-5.38Z"/>
    <path d="M96.13,41.6h-6.82v-9.17h5.46c.88,0,1.32-.48,1.32-1.32v-.72c0-.84-.44-1.32-1.32-1.32h-5.46v-8.77h6.7c.88,0,1.32-.44,1.32-1.32v-.68c0-.84-.44-1.32-1.32-1.32h-9.13c-.88,0-1.32.48-1.32,1.32v25.29c0,.84.44,1.32,1.32,1.32h9.25c.88,0,1.32-.48,1.32-1.32v-.68c0-.88-.44-1.32-1.32-1.32Z"/>
    <path d="M111.24,32.91c2.07-.84,3.27-2.55,3.27-5.34v-4.67c0-4.11-2.55-5.9-6.78-5.9h-5.66c-.88,0-1.32.48-1.32,1.32v25.29c0,.84.44,1.32,1.32,1.32h1.12c.84,0,1.32-.48,1.32-1.32v-10.13h3.27l3.51,10.37c.24.76.72,1.08,1.48,1.08h1.12c.96,0,1.4-.64,1.12-1.52l-3.75-10.49ZM110.76,26.88c0,2.47-1.12,3.31-3.19,3.31h-3.07v-9.89h3.07c2.07,0,3.19.84,3.19,3.31v3.27Z"/>
    <path d="M121.33,16.99h-1.12c-.88,0-1.32.48-1.32,1.32v25.29c0,.84.44,1.32,1.32,1.32h1.12c.84,0,1.32-.48,1.32-1.32v-25.29c0-.84-.48-1.32-1.32-1.32Z"/>
    <path d="M137.83,41.6h-6.82v-9.17h5.46c.88,0,1.32-.48,1.32-1.32v-.72c0-.84-.44-1.32-1.32-1.32h-5.46v-8.77h6.7c.88,0,1.32-.44,1.32-1.32v-.68c0-.84-.44-1.32-1.32-1.32h-9.13c-.88,0-1.32.48-1.32,1.32v25.29c0,.84.44,1.32,1.32,1.32h9.25c.88,0,1.32-.48,1.32-1.32v-.68c0-.88-.44-1.32-1.32-1.32Z"/>
    <path class="cls-2" d="M212.79,24.78h-1.35c-1.03,0-1.58-.55-1.58-1.58v-4.28c0-1.74-.99-2.38-2.34-2.38s-2.34.63-2.34,2.38v3.88c0,1.43.48,2.06,1.78,2.81l3.25,1.82c2.65,1.51,4.24,2.73,4.24,5.71v5.98c0,4.28-2.65,5.79-6.85,5.79h-.08c-4.2,0-6.85-1.47-6.85-5.79v-5.23c0-1.03.55-1.58,1.58-1.58h1.35c1.03,0,1.58.55,1.58,1.58v4.6c0,1.7.99,2.46,2.38,2.46s2.38-.75,2.38-2.46v-4.16c0-1.43-.44-2.14-1.82-2.89l-3.21-1.82c-2.69-1.55-4.24-2.81-4.24-5.71v-5.63c0-4.12,3.01-5.71,6.82-5.71h.08c3.8,0,6.82,1.58,6.82,5.71v4.91c0,1.03-.55,1.58-1.58,1.58Z"/>
    <path class="cls-4" d="M224.91,16.54h.32c4.2,0,6.97,1.66,6.97,5.86v16.64c0,4.2-2.77,5.86-6.97,5.86h-.32c-4.2,0-6.97-1.66-6.97-5.86v-16.64c0-4.24,2.77-5.86,6.97-5.86ZM225.07,40.87c1.51,0,2.54-.55,2.54-2.54v-15.22c0-1.98-1.03-2.54-2.54-2.54s-2.54.55-2.54,2.54v15.22c0,1.98,1.03,2.54,2.54,2.54Z"/>
    <path class="cls-6" d="M246.85,42.06v.95c0,1.03-.55,1.58-1.58,1.58h-8.52c-1.03,0-1.58-.55-1.58-1.58v-24.57c0-1.03.55-1.58,1.58-1.58h1.43c1.03,0,1.58.55,1.58,1.58v22.03h5.51c1.03,0,1.58.55,1.58,1.58Z"/>
    <path class="cls-5" d="M260.58,44.6h-9.11c-1.03,0-1.58-.55-1.58-1.58v-24.57c0-1.03.55-1.58,1.58-1.58h8.99c1.03,0,1.58.55,1.58,1.58v.87c0,1.03-.55,1.58-1.58,1.58h-5.98v7.44h4.75c1.03,0,1.58.55,1.58,1.58v.87c0,1.03-.55,1.58-1.58,1.58h-4.75v8.17h6.1c1.03,0,1.58.55,1.58,1.58v.87c0,1.03-.55,1.58-1.58,1.58Z"/>
    <path class="cls-8" d="M268.46,44.6h-1.43c-1.03,0-1.58-.55-1.58-1.58v-24.57c0-1.03.55-1.58,1.58-1.58h1.43c1.03,0,1.58.55,1.58,1.58v24.57c0,1.03-.55,1.58-1.58,1.58Z"/>
    <path class="cls-7" d="M285.59,42.06v.95c0,1.03-.55,1.58-1.58,1.58h-8.52c-1.03,0-1.58-.55-1.58-1.58v-24.57c0-1.03.55-1.58,1.58-1.58h1.43c1.03,0,1.58.55,1.58,1.58v22.03h5.51c1.03,0,1.58.55,1.58,1.58Z"/>
    <path class="cls-9" d="M195.79,8.75c-7.1-12.04-23.9-10.02-34.19-3.74-3.49,2.13-6.94,4.75-8.93,9.02-.62,1.52-.88,2.9-.88,4.15-3.26,2.74-5.88,6.18-7.15,10.54-1.33,4.74-1.2,10.17,1.99,14.31,9.09,10.48,26.82,5.65,36.7-1.06,10.83-7.36,18.57-21.14,12.47-33.23ZM161.25,42.68c-10.74-1.26-11.87-11.86-6.07-18.29h.03c.76.48,5.64,3.4,12.85.78,1.05-.38,1.56-1.6,1.09-2.62h0c-.38-.81-1.28-1.26-2.15-1.04-3.66.93-6.92.46-8.17-.32.03-.02.07-.04.1-.07,1.35-.98,2.8-1.89,4.34-2.7,3.99-2.12,8.62-3.9,13.01-4.86,1.5-.24,2.33-1.55,2.11-2.93-.24-1.47-1.68-2.43-3.14-2.16-4.12.77-7.95,1.72-11.81,3.18-2.25.86-4.53,1.89-6.69,3.13,1.14-2.72,3.81-5.11,6.24-6.72,6.39-3.93,16.78-5.96,23.73-2.19,4.27,2.32,6.52,6.97,6.25,11.82-.8,13.99-18.58,27.08-31.69,24.98Z"/>
  </g>
</svg>