<?xml version="1.0" encoding="UTF-8"?>
<svg id="Calque_2" data-name="Calque 2" xmlns="http://www.w3.org/2000/svg" viewBox="0 0 900.08 624.06">
  <defs>
    <style>
      .cls-1 {
        fill: #02b4f3;
      }
    </style>
  </defs>
  <g id="Calque_1-2" data-name="Calque 1">
    <path class="cls-1" d="M602.35,86.56l-.33,279.22c-.04,29.59-19.04,55.42-44.72,68.2-40.2,20.01-89.46,2.1-107.45-39.16L314.56,84.59c-1.26-2.89-3.55-3.68-6.03-3.67-2.03.01-4.48,1.32-5.69,4.06l-138.6,314.36c-16.47,31.35-51.37,48.13-86.47,41.3-35.18-7.65-59.78-35.47-63.75-71.15l.07-227.81c40.3-.47,74.37,32.06,74.55,72.6l.6,136.43c.02,4.15,3.02,6.46,6.34,6.68,4.12.27,5.38-2.18,7.11-6.17L230.89,55.15c13.19-30.47,39.12-52.39,72.77-53.85,32-1.38,63.61,16.69,77.11,46.99l136.1,305.46c1.3,2.92,5.07,3.14,7.14,2.57,2.34-.64,4.91-3.27,4.9-6.89l-.49-269.16c-.08-42.16,33.17-78.4,76.15-79.85l75.96-.09,18.31.98c54.73,5.22,105.94,31.31,142.64,72.17,36.03,40.11,56,91.07,56.98,145.14,1.55,86.04-48.72,165.65-126.29,202.55-14.31,6.81-28.07,12.05-43.85,15.18-16.72,3.32-33.23,6.09-50.41,6.22l-43.93.33c-.63-43.5,32.48-71.25,73.58-78.59,14.37-2.57,27.02-7.23,39.83-14.17,49.29-26.7,79.29-79.96,76.31-135.82-3.91-73.39-60.37-132.93-134.2-138.84l-78.38-.58c-5.78-.04-8.79,6.06-8.79,11.65Z"/>
    <path class="cls-1" d="M346.38,333.42l-75.23.1c-20.15.03-35.63-18.04-36.12-37.18s14.41-39.08,35.01-39.05l77.82.12c20.05.03,34.33,19.31,34.26,37.96-.07,19.32-14.98,38.01-35.75,38.04Z"/>
    <circle class="cls-1" cx="51.37" cy="51.37" r="51.37"/>
    <path class="cls-1" d="M146.02,622.73l-.16-53.33-26.28,43.72c-3.27.69-6.04.53-9.55.27l-25.86-42.31-.21,51.62-19.98.03-.02-90.16,17.41-.08,33.77,55.53,32.95-55.34,17.7.2.3,89.77-20.07.08Z"/>
    <path class="cls-1" d="M294.88,623.24l-17.83-.37c-.23,0-.78-.13-.97,0l-.51-38.93c-.24-.69-.6-1.93-.51-2.79.38-3.48.55-7-.46-10.55l-5.49,9.67c0,.12.07.37.01.51-1.01.33-1.8,1.12-2.08,2.15-.07.25-.03.58-.01.85-.42.27-.98.73-1,1.17l-.03.77c-.8.4-1.5,1-1.92,1.8l.49,1.51c-1.23.31-2,1.28-2.78,2.61l-4.79,8.23c.06.27.1.73,0,.96l-1,1.08c-.49.52-.77,1.2-.96,1.88-.51.18-.9.64-1,1.17-.05.25-.06.59,0,.83-1.6.8-2.45,2.46-2.98,4.13-.08.26-.05.61-.03.89l-1.03,1.09-.96.94-9.78-.14-6.15-8.99-.08-.8c-.16-1.71-1.42-3.31-2.98-4.18.06-.23.04-.59-.03-.81-.55-1.68-1.4-3.33-2.97-4.21.06-.22.04-.57-.03-.79-.53-1.67-1.38-3.34-3-4.14.06-.25.03-.59,0-.85-.07-.55-.47-1.01-1.02-1.11l-.92-1.94-1.04-1.09-.03-.87c-.03-1.06-1.05-1.87-2.07-2.24-.05-.13-.03-.31.05-.45-1.38-3.29-3.32-6.39-5.79-9.49l-.19,51.14-.94.95-16.95.28-1.43-.52c-.37-.13-.58-.85-.57-1.78l.04-87.99h17.95s33.4,55.21,33.4,55.21l33.19-55.42,17.41.1-.24,90.48Z"/>
    <path class="cls-1" d="M491.07,532.69c.52,0,1.48-.14,1.92.1,1.79,1.19,3.96.85,6.03.93l.71.03c5.87,2.77,11.23,5.88,15.27,11.07l.06.78c.09,1.21.94,2.31,1.89,3.08l.08,1.94c.07,1.76.09,3.53,1,5.06l-.09,1.91c-1.12,2.95-1.31,6.34-2.91,9.11v.89s-1,1.1-1,1.1c-.46.51-.82,1.16-.97,1.84-.85.47-1.77,1.02-2.21,1.87l-.56,1.05c-1.26.27-2.71.41-3.57,2.54,3.8,1.41,6.63,3.39,9.33,5.73l1,.87c.34,1,1.05,1.77,1.98,2.2.06.24.03.55,0,.8,5.42,9.33,3.94,20.95-3.13,29.02-.23-.09-.61-.05-.81.02-.99.31-1.73,1.09-2.07,2.05-.69.23-1.34.51-1.91.95l-1.25.96-.75.04c-1.57.08-3.16.65-4.1,2.06-.58-.11-1.27-.05-1.91.05l-11.16,1.72-51.81.27c.02-2.6.17-4.47-.94-6.11l-.03-82.9c.44-.21.81-.59.96-1.08h.82s50.15.02,50.15.02ZM487.6,568.82c5.83-.14,9.28-5.89,9.02-10.37-.29-5.17-4.08-9.46-9.78-9.55l-26.54-.43.04,21,27.25-.65ZM491.14,606.29c6.6-.11,10.35-5.67,9.95-11.01-.42-5.58-4.54-9.89-10.81-10.01l-30.04-.57-.1,22.12,31-.52Z"/>
    <path class="cls-1" d="M866.08,532.69c.79,0,2.17-.2,2.87.17,1.3.7,2.62.79,4.13.87l.69.04c1.52,1.16,3.43,1.6,5.31,1.94.21.04.5.1.7.04.99,1.5,2.67,2.82,4.34,2.89l.89.04c.28,1.01,1.18,1.82,2.21,1.98l.96-.24c1.04,2.31,2.91,4.28,5.09,5.36.02.35-.11.97-.26,1.32,2.2,2.7,3.35,5.9,4.72,9.05l.16.63.07,12.92c.04,8-4.81,14.78-9.87,20.13-.22,0-.46,0-.59.03-2.59.8-4.61,2.4-7.46,4.16l8.97,11.84c.17.66.51,1.28.97,1.78l1,1.15c.07.8.51,1.03,1.15,1.22.94,3.46,4.9,8.74,7.94,11.69-.07.41-.33.71-.65.81l-1.54.48-19.91-.27-1.92-2.01-1.01-1.14-1.06-1.77c-.24-.44-.56-.83-.94-1.16l-.95-1.93-9.03-12.2c.05-.24.05-.62-.05-.81-.63-.94-1.52-3.53-3.02-3.86l-18.95-.16.44,23.97c-.14.34-1.24,1.03-1.48,1.06l-19.96-.06.09-89.98c.14.15.59.06.78,0l45.16.02ZM877.11,566.26c.89-9.33-5.67-16.3-14.19-16.35l-21.74-.14-.09,30.94,22.63-.4c7.36-.13,13.47-6.08,13.39-14.05Z"/>
    <path class="cls-1" d="M371.93,531.2l10.16,1.63c.57.09,1.32.1,1.91.09,2,1.42,4.77,3.11,7.01,3.03l.9-.03,9.5,5.99c.14.39.21.88.52,1.11l1.15.87c.32.24.6.74.97.94.57,1.4,1.64,2.48,3.02,3.07l.85,1c.74,2.32,2.11,4.66,4.08,6.14-.06.22-.02.56.03.79.12.53.5.98,1,1.18v.79c.23.47.58.87,1.01,1.15v.88s2.94,9.12,2.94,9.12l.06,1.9v14.05s-.09,1.93-.09,1.93c-2.03,6.13-3.71,12.48-8.17,17.79-1.31,1.56-2.39,3.05-2.67,4.8l-1.16.39c-1.36.45-2.3,1.79-2.94,3.09-.31.14-.83.64-.95.96-1.65.59-3.28,1.45-4.16,3-.24-.05-.57-.02-.8.03-1.2.3-2.45.85-2.93,2.02-1.07.2-2.07.49-3.02.98-.46.24-.88.6-1.25.96l-.83.04c-1.81.09-3.74.64-5.07,1.93l-1.94.1c-8.63,1.46-17.71,1.55-26.35.14l-1.83-.04c-1.1-1.71-3.48-1.55-5.28-1.96l-.54-.12c-1.2-1.61-3.25-2.28-5.12-3.01-.25-.1-.6-.01-.85-.02-1.37-2.06-3.68-3.48-6.11-4.04-.12-.35-.54-.8-.86-.95-.64-1.38-1.73-2.45-3.14-3.03-.19-.35-.61-.67-.91-.94-.29-.42-.64-.79-1.02-1.12-.25-.44-.91-.62-1.17-.81-7.32-10.33-10.03-22.55-8.73-35.12l-.27-2.97c1.91-5.95,4.59-11.42,7.27-17.05l.89-1.88c1.35-.67,2.43-1.76,3.01-3.17.36-.19.68-.63.95-.92.42-.3.75-.68,1-1.13.26-.29.79-.54.99-.9,1.4-.57,2.49-1.64,3.16-2.96l.83-.04c1.04-.04,1.82-1.05,2.14-2.06.16-.06.41-.08.62.08l12.45-5.87,1.34-.34,10.61-1.5c2.38-.34,5.45-.35,7.8.02ZM396.65,577.84c0-15.83-12.83-28.66-28.66-28.66s-28.66,12.83-28.66,28.66,12.83,28.66,28.66,28.66,28.66-12.83,28.66-28.66Z"/>
    <path class="cls-1" d="M795.03,532.72v.92s-.03,15.03-.03,15.03l-46.7.51c-1.5,6.48-1.41,13.02-.55,19.62l35.32-.08,5.98-.29-.1,16.23-41.06.74c-1.04,6.94-1.04,13.5.03,20.25h43.14c2.37-.01,4.44-.02,6.12,1.05l-.76,16.77h-68.41c.05-1.18-.85-1.33-1.06-1.61l.07-89.18,68,.05Z"/>
    <path class="cls-1" d="M612.22,532.66c.34.43.41,1.76,1.53,2.1l-.72,70.92,44.12-.06c.12.31.65.81.97.95l.31,16.2-1.33-.08h-64.11c-.21-.05-.72-.13-.92,0l.07-90.03c.14.15.61.01.9.01h19.18Z"/>
    <path class="cls-1" d="M564.2,532.65l1.6,3.11.05,84.88c-1.18.27-1.51,1.57-1.76,2.43l-18.95-.4c-.3,0-.85-.13-1.03,0l-.04-90.06c.08.21.74.02.99.02l19.15.02Z"/>
    <path class="cls-1" d="M700.22,532.59c.17.35.56.76.86,1.02l.73,88.12c-1.1-.05-1.61.73-1.72,1.34l-19.05-.37c-.26,0-.81-.13-1.02,0l.04-90.09c.08.21.73.02,1.03.02l19.13-.04Z"/>
    <rect class="cls-1" x="-20.67" y="567.07" width="90.4" height="21.16" transform="translate(-553.15 601.51) rotate(-89.93)"/>
  </g>
</svg>