<?xml version="1.0" encoding="UTF-8"?>
<svg id="Calque_2" data-name="Calque 2" xmlns="http://www.w3.org/2000/svg" xmlns:xlink="http://www.w3.org/1999/xlink" viewBox="0 0 144.89 83.39">
  <defs>
    <style>
      .cls-1 {
        fill: none;
      }

      .cls-2 {
        fill: url(#Dégradé_sans_nom_7);
      }

      .cls-3 {
        fill: #1d1d1b;
      }

      .cls-4 {
        fill: url(#Dégradé_sans_nom_7-2);
      }

      .cls-5 {
        fill: url(#Dégradé_sans_nom_7-4);
      }

      .cls-6 {
        fill: url(#Dégradé_sans_nom_7-3);
      }

      .cls-7 {
        fill: url(#Dégradé_sans_nom_7-6);
      }

      .cls-8 {
        fill: url(#Dégradé_sans_nom_7-5);
      }

      .cls-9 {
        fill: url(#Dégradé_sans_nom_7-7);
      }
    </style>
    <linearGradient id="Dégradé_sans_nom_7" data-name="Dégradé sans nom 7" x1="64.52" y1="32.13" x2="64.52" y2="65.44" gradientUnits="userSpaceOnUse">
      <stop offset="0" stop-color="#f39200"/>
      <stop offset="1" stop-color="#e84e0f"/>
    </linearGradient>
    <linearGradient id="Dégradé_sans_nom_7-2" data-name="Dégradé sans nom 7" x1="82.55" y1="36.22" x2="82.55" xlink:href="#Dégradé_sans_nom_7"/>
    <linearGradient id="Dégradé_sans_nom_7-3" data-name="Dégradé sans nom 7" x1="98.97" y1="36.54" x2="98.97" y2="65.11" xlink:href="#Dégradé_sans_nom_7"/>
    <linearGradient id="Dégradé_sans_nom_7-4" data-name="Dégradé sans nom 7" x1="114.43" y1="36.54" x2="114.43" y2="65.11" xlink:href="#Dégradé_sans_nom_7"/>
    <linearGradient id="Dégradé_sans_nom_7-5" data-name="Dégradé sans nom 7" x1="126.51" y1="36.54" x2="126.51" y2="65.11" xlink:href="#Dégradé_sans_nom_7"/>
    <linearGradient id="Dégradé_sans_nom_7-6" data-name="Dégradé sans nom 7" x1="138.87" y1="36.54" x2="138.87" y2="65.11" xlink:href="#Dégradé_sans_nom_7"/>
    <linearGradient id="Dégradé_sans_nom_7-7" data-name="Dégradé sans nom 7" x1="27.06" y1="24.58" x2="27.06" y2="73.73" xlink:href="#Dégradé_sans_nom_7"/>
  </defs>
  <g id="Calque_1-2" data-name="Calque 1">
    <path class="cls-1" d="M113.31,3.63h-3.07v9.89h3.07c2.07,0,3.19-.84,3.19-3.31v-3.27c0-2.47-1.12-3.31-3.19-3.31Z"/>
    <polygon class="cls-1" points="47.45 5.03 45.02 18.51 49.88 18.51 47.45 5.03"/>
    <path class="cls-1" d="M15.67,22.1v-4.19c0-1.72-1-2.51-2.79-2.51h-3.39v9.57h3.39c1.87,0,2.79-.92,2.79-2.87Z"/>
    <path class="cls-1" d="M15.51,9.69v-3.23c0-1.95-.92-2.87-2.79-2.87h-3.23v8.62h3.23c1.79,0,2.79-.8,2.79-2.51Z"/>
    <path class="cls-1" d="M33.34,10.21v-3.27c0-2.47-1.12-3.31-3.19-3.31h-3.07v9.89h3.07c2.07,0,3.19-.84,3.19-3.31Z"/>
    <path d="M7.06,28.24h5.66c4.23,0,6.7-2.11,6.7-5.5v-4.59c0-2.03-.76-4.03-3.27-4.43,2.35-.28,3.11-2.47,3.11-4.39v-3.51c0-3.39-2.23-5.5-6.46-5.5h-5.74c-.88,0-1.32.48-1.32,1.32v25.29c0,.84.44,1.32,1.32,1.32ZM9.49,3.59h3.23c1.87,0,2.79.92,2.79,2.87v3.23c0,1.72-1,2.51-2.79,2.51h-3.23V3.59ZM9.49,15.4h3.39c1.79,0,2.79.8,2.79,2.51v4.19c0,1.95-.92,2.87-2.79,2.87h-3.39v-9.57Z"/>
    <path d="M27.07,16.79h3.27l1.76,5.21c.13.39.51.64.93.61.58-.04,1.15-.06,1.73-.07.64,0,1.08-.62.87-1.22l-1.82-5.09c2.07-.84,3.27-2.55,3.27-5.34v-4.67c0-4.11-2.55-5.9-6.78-5.9h-5.66c-.88,0-1.32.48-1.32,1.32v21.8c0,.63.6,1.06,1.2.86s1.23-.38,1.87-.55c.4-.11.68-.46.68-.88v-6.08ZM27.07,3.63h3.07c2.07,0,3.19.84,3.19,3.31v3.27c0,2.47-1.12,3.31-3.19,3.31h-3.07V3.63Z"/>
    <path d="M66.91,13.48l-3.63-1.99c-1.6-.92-2.19-1.52-2.19-3.19v-1.91c0-2.23,1.08-3.11,2.99-3.11s2.99.88,2.99,3.11v2.47c0,.84.44,1.32,1.32,1.32h1.04c.88,0,1.32-.48,1.32-1.32v-3.11c0-4.03-2.79-5.74-6.62-5.74h-.08c-3.83,0-6.62,1.72-6.62,5.74v3.51c0,2.67,1.36,3.87,3.91,5.34l3.59,1.99c1.64.92,2.23,1.64,2.23,3.31v2.19c0,2.19-1.08,3.19-3.03,3.19s-3.03-1-3.03-3.19v-2.79c0-.84-.44-1.32-1.32-1.32h-1.04c-.88,0-1.32.48-1.32,1.32v3.43c0,4.23,2.43,5.82,6.66,5.82h.08c4.23,0,6.66-1.64,6.66-5.82v-3.87c0-2.67-1.52-4.03-3.91-5.38Z"/>
    <path d="M83.57,13.48l-3.63-1.99c-1.6-.92-2.19-1.52-2.19-3.19v-1.91c0-2.23,1.08-3.11,2.99-3.11s2.99.88,2.99,3.11v2.47c0,.84.44,1.32,1.32,1.32h1.04c.88,0,1.32-.48,1.32-1.32v-3.11c0-4.03-2.79-5.74-6.62-5.74h-.08c-3.83,0-6.62,1.72-6.62,5.74v3.51c0,2.67,1.36,3.87,3.91,5.34l3.59,1.99c1.64.92,2.23,1.64,2.23,3.31v2.19c0,2.19-1.08,3.19-3.03,3.19s-3.03-1-3.03-3.19v-2.79c0-.84-.44-1.32-1.32-1.32h-1.04c-.88,0-1.32.48-1.32,1.32v3.43c0,4.23,2.43,5.82,6.66,5.82h.08c4.23,0,6.66-1.64,6.66-5.82v-3.87c0-2.67-1.52-4.03-3.91-5.38Z"/>
    <path d="M101.87,24.93h-6.82v-9.17h5.46c.88,0,1.32-.48,1.32-1.32v-.72c0-.84-.44-1.32-1.32-1.32h-5.46V3.63h6.7c.88,0,1.32-.44,1.32-1.32v-.68c0-.84-.44-1.32-1.32-1.32h-9.13c-.88,0-1.32.48-1.32,1.32v25.29c0,.84.44,1.32,1.32,1.32h9.25c.88,0,1.32-.48,1.32-1.32v-.68c0-.88-.44-1.32-1.32-1.32Z"/>
    <path d="M116.98,16.23c2.07-.84,3.27-2.55,3.27-5.34v-4.67c0-4.11-2.55-5.9-6.78-5.9h-5.66c-.88,0-1.32.48-1.32,1.32v25.29c0,.84.44,1.32,1.32,1.32h1.12c.84,0,1.32-.48,1.32-1.32v-10.13h3.27l3.51,10.37c.24.76.72,1.08,1.48,1.08h1.12c.96,0,1.4-.64,1.12-1.52l-3.75-10.49ZM116.51,10.21c0,2.47-1.12,3.31-3.19,3.31h-3.07V3.63h3.07c2.07,0,3.19.84,3.19,3.31v3.27Z"/>
    <path d="M127.07.32h-1.12c-.88,0-1.32.48-1.32,1.32v25.29c0,.84.44,1.32,1.32,1.32h1.12c.84,0,1.32-.48,1.32-1.32V1.64c0-.84-.48-1.32-1.32-1.32Z"/>
    <path d="M143.58,24.93h-6.82v-9.17h5.46c.88,0,1.32-.48,1.32-1.32v-.72c0-.84-.44-1.32-1.32-1.32h-5.46V3.63h6.7c.88,0,1.32-.44,1.32-1.32v-.68c0-.84-.44-1.32-1.32-1.32h-9.13c-.88,0-1.32.48-1.32,1.32v25.29c0,.84.44,1.32,1.32,1.32h9.25c.88,0,1.32-.48,1.32-1.32v-.68c0-.88-.44-1.32-1.32-1.32Z"/>
    <path class="cls-2" d="M69.9,44.71h-1.39c-1.06,0-1.63-.57-1.63-1.63v-4.41c0-1.8-1.02-2.45-2.41-2.45s-2.41.65-2.41,2.45v4c0,1.47.49,2.12,1.84,2.9l3.35,1.88c2.73,1.55,4.37,2.82,4.37,5.88v6.16c0,4.41-2.73,5.96-7.06,5.96h-.08c-4.33,0-7.06-1.51-7.06-5.96v-5.39c0-1.06.57-1.63,1.63-1.63h1.39c1.06,0,1.63.57,1.63,1.63v4.74c0,1.76,1.02,2.53,2.45,2.53s2.45-.78,2.45-2.53v-4.29c0-1.47-.45-2.2-1.88-2.98l-3.31-1.88c-2.78-1.59-4.37-2.9-4.37-5.88v-5.8c0-4.24,3.1-5.88,7.02-5.88h.08c3.92,0,7.02,1.63,7.02,5.88v5.06c0,1.06-.57,1.63-1.63,1.63Z"/>
    <path class="cls-4" d="M82.39,36.22h.33c4.33,0,7.18,1.71,7.18,6.04v17.14c0,4.33-2.86,6.04-7.18,6.04h-.33c-4.33,0-7.18-1.71-7.18-6.04v-17.14c0-4.37,2.86-6.04,7.18-6.04ZM82.55,61.28c1.55,0,2.61-.57,2.61-2.61v-15.67c0-2.04-1.06-2.61-2.61-2.61s-2.61.57-2.61,2.61v15.67c0,2.04,1.06,2.61,2.61,2.61Z"/>
    <path class="cls-6" d="M104.99,62.5v.98c0,1.06-.57,1.63-1.63,1.63h-8.78c-1.06,0-1.63-.57-1.63-1.63v-25.31c0-1.06.57-1.63,1.63-1.63h1.47c1.06,0,1.63.57,1.63,1.63v22.69h5.67c1.06,0,1.63.57,1.63,1.63Z"/>
    <path class="cls-5" d="M119.13,65.11h-9.39c-1.06,0-1.63-.57-1.63-1.63v-25.31c0-1.06.57-1.63,1.63-1.63h9.27c1.06,0,1.63.57,1.63,1.63v.9c0,1.06-.57,1.63-1.63,1.63h-6.16v7.67h4.9c1.06,0,1.63.57,1.63,1.63v.9c0,1.06-.57,1.63-1.63,1.63h-4.9v8.41h6.29c1.06,0,1.63.57,1.63,1.63v.9c0,1.06-.57,1.63-1.63,1.63Z"/>
    <path class="cls-8" d="M127.24,65.11h-1.47c-1.06,0-1.63-.57-1.63-1.63v-25.31c0-1.06.57-1.63,1.63-1.63h1.47c1.06,0,1.63.57,1.63,1.63v25.31c0,1.06-.57,1.63-1.63,1.63Z"/>
    <path class="cls-7" d="M144.89,62.5v.98c0,1.06-.57,1.63-1.63,1.63h-8.78c-1.06,0-1.63-.57-1.63-1.63v-25.31c0-1.06.57-1.63,1.63-1.63h1.47c1.06,0,1.63.57,1.63,1.63v22.69h5.67c1.06,0,1.63.57,1.63,1.63Z"/>
    <path class="cls-9" d="M51.96,33.34c-7.1-12.04-23.9-10.02-34.19-3.74-3.49,2.13-6.94,4.75-8.93,9.02-.62,1.52-.88,2.9-.88,4.15-3.26,2.74-5.88,6.18-7.15,10.54-1.33,4.74-1.2,10.17,1.99,14.31,9.09,10.48,26.82,5.65,36.7-1.06,10.83-7.36,18.57-21.14,12.47-33.23ZM17.42,67.27c-10.74-1.26-11.87-11.86-6.07-18.29h.03c.76.48,5.64,3.4,12.85.78,1.05-.38,1.56-1.6,1.09-2.62h0c-.38-.81-1.28-1.26-2.15-1.04-3.66.93-6.92.46-8.17-.32.03-.02.07-.04.1-.07,1.35-.98,2.8-1.89,4.34-2.7,3.99-2.12,8.62-3.9,13.01-4.86,1.5-.24,2.33-1.55,2.11-2.93-.24-1.47-1.68-2.43-3.14-2.16-4.12.77-7.95,1.72-11.81,3.18-2.25.86-4.53,1.89-6.69,3.13,1.14-2.72,3.81-5.11,6.24-6.72,6.39-3.93,16.78-5.96,23.73-2.19,4.27,2.32,6.52,6.97,6.25,11.82-.8,13.99-18.58,27.08-31.69,24.98Z"/>
    <path d="M55.15,26.8L50.04,1.52c-.16-.8-.68-1.2-1.44-1.2h-2.23c-.76,0-1.28.4-1.44,1.2l-4.08,20.52c-.12.58.24,1.15.81,1.29.42.1.91.25,1.41.42h0s.9.34,1.08-.62c0,0,0,0,0,0l.26-1.47h6.02l.96,5.38c.16.8.64,1.2,1.44,1.2h1.16c.88,0,1.36-.52,1.16-1.44ZM45.02,18.51l2.43-13.48,2.43,13.48h-4.87Z"/>
    <g>
      <path class="cls-3" d="M39.55,76.75v6.52h-1.14v-6.52h1.14ZM40.99,81.03h-1.71v-1.02h1.47c.39,0,.69-.1.9-.3.21-.2.31-.48.31-.83s-.1-.63-.31-.82c-.21-.19-.5-.29-.88-.29h-1.6v-1.02h1.82c.44,0,.82.09,1.14.27s.57.43.75.74c.18.32.27.69.27,1.12s-.09.79-.27,1.11c-.18.32-.43.58-.75.76s-.7.27-1.14.27Z"/>
      <path class="cls-3" d="M43.48,81.06c0-.46.1-.86.3-1.21.2-.35.48-.62.84-.82.36-.2.76-.29,1.21-.29s.86.1,1.22.29c.35.2.63.47.83.82.2.35.3.75.3,1.21s-.1.86-.3,1.21c-.2.35-.48.62-.83.82s-.76.29-1.22.29-.86-.1-1.21-.29-.64-.47-.84-.82c-.2-.35-.3-.75-.3-1.21ZM44.57,81.06c0,.27.05.5.17.7.11.2.26.36.45.47.19.11.41.17.66.17s.47-.06.66-.17c.19-.11.34-.27.45-.47.11-.2.16-.44.16-.7s-.05-.51-.16-.71c-.11-.2-.26-.36-.45-.47-.19-.11-.41-.17-.66-.17s-.47.06-.66.17c-.19.11-.34.27-.45.47-.11.2-.17.44-.17.71Z"/>
      <path class="cls-3" d="M51.82,78.85v1.01h-.4c-.4,0-.71.11-.94.32-.23.21-.34.53-.34.96v2.14h-1.09v-4.4h1.03l.09.91h-.11c.06-.29.2-.53.42-.71.22-.18.51-.28.86-.28.08,0,.15,0,.23,0,.08,0,.16.02.25.04Z"/>
      <path class="cls-3" d="M52.31,78.87h2.78v.91h-2.78v-.91ZM54.24,83.28h-1.09v-5.78h1.09v5.78Z"/>
      <path class="cls-3" d="M60,83.39c-.43,0-.8-.1-1.1-.29s-.54-.46-.71-.81c-.17-.34-.25-.75-.25-1.2s.08-.86.25-1.22c.17-.35.41-.63.74-.83.32-.2.7-.3,1.14-.3.31,0,.59.06.85.18.26.12.45.29.59.51v-2.79h1.08v6.64h-1l-.07-.69c-.13.25-.33.45-.6.59-.27.14-.57.21-.91.21ZM60.24,82.39c.26,0,.48-.05.66-.16.18-.11.33-.27.43-.47.1-.21.16-.44.16-.7s-.05-.5-.16-.7c-.1-.2-.25-.36-.43-.47-.18-.12-.4-.17-.66-.17s-.47.06-.65.17c-.18.12-.33.28-.42.48-.1.2-.15.43-.15.7s.05.49.15.7c.1.2.24.36.42.47s.4.17.65.17Z"/>
      <path class="cls-3" d="M65.68,83.39c-.43,0-.82-.1-1.16-.3-.34-.2-.6-.47-.79-.82-.19-.35-.29-.75-.29-1.2s.09-.86.28-1.21c.18-.35.44-.63.78-.83.33-.2.71-.3,1.14-.3s.83.09,1.15.28c.32.19.57.45.74.78.17.33.26.73.26,1.2v.33h-3.78s.02-.69.02-.69h2.68c0-.3-.1-.55-.29-.73s-.45-.28-.78-.28c-.26,0-.47.05-.65.16-.18.11-.31.27-.4.48s-.13.48-.13.78c0,.48.1.84.31,1.08.2.24.51.37.91.37.3,0,.54-.06.74-.17.19-.11.32-.27.38-.48h1.01c-.1.48-.33.86-.71,1.13-.38.27-.86.41-1.43.41Z"/>
      <path class="cls-3" d="M72.35,83.28h-1.11v-6.52h1.11l2.11,5.19,2.11-5.19h1.12v6.52h-1.11v-2.83c0-.22,0-.41,0-.57s.01-.29.02-.41.02-.24.04-.36l-1.66,4.17h-1.05l-1.65-4.16c.03.2.05.45.06.75,0,.3.01.66.01,1.07v2.34Z"/>
      <path class="cls-3" d="M80.28,83.39c-.46,0-.83-.13-1.1-.38-.27-.25-.41-.58-.41-1s.14-.73.42-.97.69-.38,1.21-.42l1.32-.11v-.1c0-.2-.04-.36-.11-.49-.07-.12-.18-.21-.32-.27-.14-.06-.3-.08-.48-.08-.32,0-.57.06-.74.19-.17.13-.26.31-.26.54h-.93c0-.32.08-.6.24-.83.16-.23.4-.42.7-.55s.65-.2,1.04-.2.74.07,1.03.21c.29.14.51.35.66.62s.23.62.23,1.03v2.68h-.95l-.08-.65c-.1.23-.28.41-.55.55-.27.14-.58.21-.92.21ZM80.63,82.57c.34,0,.61-.1.81-.29.2-.19.3-.46.3-.79v-.23l-.92.07c-.34.03-.58.1-.72.21-.14.11-.21.25-.21.43,0,.2.07.34.2.45.13.1.32.15.55.15Z"/>
      <path class="cls-3" d="M86.62,78.85v1.01h-.4c-.4,0-.71.11-.94.32s-.34.53-.34.96v2.14h-1.09v-4.4h1.03l.09.91h-.11c.06-.29.2-.53.42-.71.22-.18.51-.28.86-.28.08,0,.15,0,.23,0,.08,0,.16.02.25.04Z"/>
      <path class="cls-3" d="M87.03,81.94h1.04c0,.19.08.34.21.45.14.11.33.17.57.17.26,0,.46-.05.59-.14s.2-.22.2-.38c0-.11-.04-.2-.11-.29s-.2-.15-.4-.19l-.79-.19c-.4-.09-.69-.23-.89-.43-.19-.2-.29-.47-.29-.83,0-.29.08-.53.23-.74s.36-.37.62-.48c.26-.11.56-.17.9-.17s.62.06.87.18.44.29.58.5c.14.21.21.46.22.75h-1.04c0-.19-.06-.34-.18-.45-.12-.11-.29-.16-.5-.16s-.38.05-.5.14-.18.22-.18.38c0,.24.19.41.57.5l.79.19c.37.08.65.22.83.4s.28.45.28.78c0,.3-.08.55-.23.77s-.37.38-.65.5-.6.17-.96.17c-.55,0-.98-.13-1.31-.4-.32-.27-.49-.62-.49-1.05Z"/>
      <path class="cls-3" d="M93.47,83.39c-.43,0-.82-.1-1.16-.3-.34-.2-.6-.47-.79-.82-.19-.35-.29-.75-.29-1.2s.09-.86.28-1.21c.18-.35.44-.63.78-.83.33-.2.71-.3,1.14-.3s.83.09,1.15.28c.32.19.57.45.74.78.17.33.26.73.26,1.2v.33h-3.78s.02-.69.02-.69h2.68c0-.3-.1-.55-.29-.73s-.45-.28-.78-.28c-.26,0-.47.05-.65.16-.18.11-.31.27-.4.48s-.13.48-.13.78c0,.48.1.84.31,1.08.2.24.51.37.91.37.3,0,.54-.06.74-.17.19-.11.32-.27.38-.48h1.01c-.1.48-.33.86-.71,1.13-.38.27-.86.41-1.43.41Z"/>
      <path class="cls-3" d="M97,77.99c-.18,0-.34-.06-.47-.19s-.19-.28-.19-.47.06-.34.19-.46.28-.19.47-.19.34.06.47.19c.13.12.19.28.19.46s-.06.34-.19.47c-.13.13-.28.19-.47.19ZM96.47,83.28v-4.41h1.09v4.41h-1.09Z"/>
      <path class="cls-3" d="M99.78,83.28h-1.08v-6.64h1.08v6.64Z"/>
      <path class="cls-3" d="M102.01,83.28h-1.08v-6.64h1.08v6.64Z"/>
      <path class="cls-3" d="M104.47,83.39c-.46,0-.83-.13-1.1-.38-.27-.25-.41-.58-.41-1s.14-.73.42-.97.69-.38,1.21-.42l1.32-.11v-.1c0-.2-.04-.36-.11-.49-.07-.12-.18-.21-.32-.27-.14-.06-.3-.08-.48-.08-.32,0-.57.06-.74.19-.17.13-.26.31-.26.54h-.93c0-.32.08-.6.24-.83.16-.23.4-.42.7-.55s.65-.2,1.04-.2.74.07,1.03.21c.29.14.51.35.66.62s.23.62.23,1.03v2.68h-.95l-.08-.65c-.1.23-.28.41-.55.55-.27.14-.58.21-.92.21ZM104.82,82.57c.34,0,.61-.1.81-.29.2-.19.3-.46.3-.79v-.23l-.92.07c-.34.03-.58.1-.72.21-.14.11-.21.25-.21.43,0,.2.07.34.2.45.13.1.32.15.55.15Z"/>
      <path class="cls-3" d="M109.13,83.28h-1.09v-4.41h1.01l.09.57c.14-.22.33-.39.58-.52.25-.12.53-.19.83-.19.55,0,.97.16,1.25.49.28.33.42.77.42,1.34v2.71h-1.09v-2.45c0-.37-.08-.64-.25-.83s-.39-.27-.68-.27c-.34,0-.6.11-.79.32-.19.21-.29.5-.29.86v2.37Z"/>
    </g>
  </g>
</svg>