<?xml version="1.0" encoding="UTF-8"?>
<svg id="Calque_2" data-name="Calque 2" xmlns="http://www.w3.org/2000/svg" xmlns:xlink="http://www.w3.org/1999/xlink" viewBox="0 0 144.89 83.39">
  <defs>
    <style>
      .cls-1 {
        fill: none;
      }

      .cls-2 {
        fill: url(#Dégradé_sans_nom_7);
      }

      .cls-3 {
        fill: url(#Dégradé_sans_nom_7-2);
      }

      .cls-4 {
        fill: url(#Dégradé_sans_nom_7-4);
      }

      .cls-5 {
        fill: url(#Dégradé_sans_nom_7-3);
      }

      .cls-6 {
        fill: url(#Dégradé_sans_nom_7-6);
      }

      .cls-7 {
        fill: url(#Dégradé_sans_nom_7-5);
      }

      .cls-8 {
        fill: url(#Dégradé_sans_nom_7-7);
      }

      .cls-9 {
        clip-path: url(#clippath-1);
      }

      .cls-10 {
        clip-path: url(#clippath-3);
      }

      .cls-11 {
        clip-path: url(#clippath-4);
      }

      .cls-12 {
        clip-path: url(#clippath-2);
      }

      .cls-13 {
        clip-path: url(#clippath-6);
      }

      .cls-14 {
        clip-path: url(#clippath-5);
      }

      .cls-15 {
        fill: #fff;
      }

      .cls-16 {
        clip-path: url(#clippath);
      }
    </style>
    <clipPath id="clippath">
      <path class="cls-1" d="M64.43,32.13c-3.92,0-7.02,1.63-7.02,5.88v5.8c0,2.98,1.59,4.29,4.37,5.88l3.31,1.88c1.43.77,1.88,1.51,1.88,2.98v4.29c0,1.76-1.02,2.53-2.45,2.53s-2.45-.77-2.45-2.53v-4.74c0-1.06-.57-1.63-1.63-1.63h-1.39c-1.06,0-1.63.57-1.63,1.63v5.39c0,4.45,2.73,5.96,7.06,5.96h.08c4.33,0,7.06-1.55,7.06-5.96v-6.16c0-3.06-1.63-4.33-4.37-5.88l-3.35-1.88c-1.35-.77-1.84-1.43-1.84-2.9v-4c0-1.8,1.02-2.45,2.41-2.45s2.41.65,2.41,2.45v4.41c0,1.06.57,1.63,1.63,1.63h1.39c1.06,0,1.63-.57,1.63-1.63v-5.06c0-4.24-3.1-5.88-7.02-5.88h-.08Z"/>
    </clipPath>
    <linearGradient id="Dégradé_sans_nom_7" data-name="Dégradé sans nom 7" x1="0" y1="83.39" x2="1" y2="83.39" gradientTransform="translate(-2713.1556 32.1388) rotate(90) scale(33.3086 -33.3086)" gradientUnits="userSpaceOnUse">
      <stop offset="0" stop-color="#f39200"/>
      <stop offset=".26" stop-color="#f08402"/>
      <stop offset=".74" stop-color="#eb620a"/>
      <stop offset="1" stop-color="#e84e0f"/>
    </linearGradient>
    <clipPath id="clippath-1">
      <path class="cls-1" d="M79.94,58.67v-15.67c0-2.04,1.06-2.61,2.61-2.61s2.61.57,2.61,2.61v15.67c0,2.04-1.06,2.61-2.61,2.61s-2.61-.57-2.61-2.61M82.39,36.22c-4.33,0-7.18,1.67-7.18,6.04v17.14c0,4.33,2.86,6.04,7.18,6.04h.33c4.33,0,7.18-1.71,7.18-6.04v-17.14c0-4.33-2.86-6.04-7.18-6.04h-.33Z"/>
    </clipPath>
    <linearGradient id="Dégradé_sans_nom_7-2" data-name="Dégradé sans nom 7" x1="0" y1="83.39" x2="1" y2="83.39" gradientTransform="translate(-2354.5219 36.2223) rotate(90) scale(29.2242 -29.2242)" xlink:href="#Dégradé_sans_nom_7"/>
    <clipPath id="clippath-2">
      <path class="cls-1" d="M94.58,36.54c-1.06,0-1.63.57-1.63,1.63v25.31c0,1.06.57,1.63,1.63,1.63h8.78c1.06,0,1.63-.57,1.63-1.63v-.98c0-1.06-.57-1.63-1.63-1.63h-5.67v-22.69c0-1.06-.57-1.63-1.63-1.63h-1.47Z"/>
    </clipPath>
    <linearGradient id="Dégradé_sans_nom_7-3" data-name="Dégradé sans nom 7" x1="0" y1="83.39" x2="1" y2="83.39" gradientTransform="translate(-2283.64 36.5487) rotate(90) scale(28.5712 -28.5712)" xlink:href="#Dégradé_sans_nom_7"/>
    <clipPath id="clippath-3">
      <path class="cls-1" d="M109.74,36.54c-1.06,0-1.63.57-1.63,1.63v25.31c0,1.06.57,1.63,1.63,1.63h9.39c1.06,0,1.63-.57,1.63-1.63v-.9c0-1.06-.57-1.63-1.63-1.63h-6.29v-8.42h4.9c1.06,0,1.63-.57,1.63-1.63v-.9c0-1.06-.57-1.63-1.63-1.63h-4.9v-7.67h6.16c1.06,0,1.63-.57,1.63-1.63v-.9c0-1.06-.57-1.63-1.63-1.63h-9.26Z"/>
    </clipPath>
    <linearGradient id="Dégradé_sans_nom_7-4" data-name="Dégradé sans nom 7" x1="0" y1="83.39" x2="1" y2="83.39" gradientTransform="translate(-2268.1773 36.5487) rotate(90) scale(28.5712 -28.5712)" xlink:href="#Dégradé_sans_nom_7"/>
    <clipPath id="clippath-4">
      <path class="cls-1" d="M125.77,36.54h1.47c.9,0,1.63.73,1.63,1.63v25.31c0,.9-.73,1.63-1.63,1.63h-1.47c-.9,0-1.63-.73-1.63-1.63v-25.31c0-.9.73-1.63,1.63-1.63Z"/>
    </clipPath>
    <linearGradient id="Dégradé_sans_nom_7-5" data-name="Dégradé sans nom 7" x1="0" y1="83.39" x2="1" y2="83.39" gradientTransform="translate(-2256.1013 36.5487) rotate(90) scale(28.5712 -28.5712)" xlink:href="#Dégradé_sans_nom_7"/>
    <clipPath id="clippath-5">
      <path class="cls-1" d="M134.48,36.54c-1.06,0-1.63.57-1.63,1.63v25.31c0,1.06.57,1.63,1.63,1.63h8.78c1.06,0,1.63-.57,1.63-1.63v-.98c0-1.06-.57-1.63-1.63-1.63h-5.67v-22.69c0-1.06-.57-1.63-1.63-1.63h-1.47Z"/>
    </clipPath>
    <linearGradient id="Dégradé_sans_nom_7-6" data-name="Dégradé sans nom 7" x1="0" y1="83.39" x2="1" y2="83.39" gradientTransform="translate(-2243.7383 36.5487) rotate(90) scale(28.5712 -28.5712)" xlink:href="#Dégradé_sans_nom_7"/>
    <clipPath id="clippath-6">
      <path class="cls-1" d="M19.13,32.66c6.39-3.93,16.78-5.96,23.73-2.19,4.27,2.32,6.52,6.97,6.25,11.82-.8,13.99-18.58,27.08-31.69,24.98-10.74-1.26-11.88-11.86-6.07-18.29.01,0,.02,0,.03,0,.76.49,5.64,3.41,12.84.79,1.05-.38,1.56-1.6,1.09-2.62-.38-.81-1.28-1.26-2.15-1.04-3.66.93-6.92.46-8.17-.32.03-.02.07-.05.1-.07,1.35-.98,2.8-1.89,4.34-2.7,3.99-2.12,8.62-3.9,13.01-4.86,1.5-.24,2.33-1.55,2.11-2.93-.24-1.47-1.68-2.43-3.15-2.16-4.12.77-7.95,1.72-11.81,3.18-2.25.86-4.53,1.89-6.69,3.13,1.14-2.72,3.81-5.11,6.24-6.72M17.77,29.6c-3.49,2.13-6.94,4.75-8.93,9.02-.62,1.52-.88,2.9-.88,4.16-3.26,2.74-5.88,6.18-7.15,10.54-1.33,4.74-1.2,10.17,1.99,14.31,9.09,10.48,26.82,5.65,36.7-1.06,10.83-7.36,18.57-21.14,12.47-33.23-3.72-6.31-10.1-8.75-16.81-8.75-6.1,0-12.48,2.02-17.39,5.02"/>
    </clipPath>
    <linearGradient id="Dégradé_sans_nom_7-7" data-name="Dégradé sans nom 7" x1="0" y1="83.43" x2="1" y2="83.43" gradientTransform="translate(-4071.0213 24.5934) rotate(90) scale(49.1423 -49.1423)" xlink:href="#Dégradé_sans_nom_7"/>
  </defs>
  <g id="Calque_1-2" data-name="Calque 1">
    <g>
      <path class="cls-15" d="M7.06,28.24h5.66c4.23,0,6.7-2.11,6.7-5.5v-4.59c0-2.03-.76-4.03-3.27-4.43,2.35-.28,3.11-2.47,3.11-4.39v-3.51c0-3.39-2.23-5.5-6.46-5.5h-5.74c-.88,0-1.32.48-1.32,1.32v25.29c0,.84.44,1.32,1.32,1.32M9.49,3.59h3.23c1.87,0,2.79.92,2.79,2.87v3.23c0,1.72-1,2.51-2.79,2.51h-3.23V3.59ZM9.49,15.4h3.39c1.8,0,2.79.8,2.79,2.51v4.19c0,1.95-.92,2.87-2.79,2.87h-3.39v-9.57Z"/>
      <path class="cls-15" d="M27.07,16.79h3.27l1.76,5.21c.13.39.51.64.93.61.58-.04,1.15-.06,1.73-.07.64,0,1.08-.62.87-1.22l-1.82-5.09c2.07-.84,3.27-2.55,3.27-5.34v-4.67c0-4.11-2.55-5.9-6.78-5.9h-5.66c-.88,0-1.32.48-1.32,1.32v21.8c0,.63.6,1.06,1.2.86.61-.2,1.24-.38,1.87-.55.4-.11.68-.46.68-.88v-6.08ZM27.07,3.63h3.07c2.07,0,3.19.84,3.19,3.31v3.27c0,2.47-1.12,3.31-3.19,3.31h-3.07V3.63Z"/>
      <path class="cls-15" d="M66.91,13.48l-3.63-1.99c-1.59-.92-2.19-1.52-2.19-3.19v-1.92c0-2.23,1.08-3.11,2.99-3.11s2.99.88,2.99,3.11v2.47c0,.84.44,1.32,1.32,1.32h1.04c.88,0,1.32-.48,1.32-1.32v-3.11c0-4.03-2.79-5.74-6.62-5.74h-.08c-3.83,0-6.62,1.72-6.62,5.74v3.51c0,2.67,1.36,3.87,3.91,5.34l3.59,1.99c1.64.92,2.23,1.64,2.23,3.31v2.19c0,2.19-1.08,3.19-3.03,3.19s-3.03-1-3.03-3.19v-2.79c0-.84-.44-1.32-1.32-1.32h-1.04c-.88,0-1.32.48-1.32,1.32v3.43c0,4.23,2.43,5.82,6.66,5.82h.08c4.23,0,6.66-1.63,6.66-5.82v-3.87c0-2.67-1.52-4.03-3.91-5.39"/>
      <path class="cls-15" d="M83.57,13.48l-3.63-1.99c-1.6-.92-2.19-1.52-2.19-3.19v-1.92c0-2.23,1.08-3.11,2.99-3.11s2.99.88,2.99,3.11v2.47c0,.84.44,1.32,1.32,1.32h1.04c.88,0,1.32-.48,1.32-1.32v-3.11c0-4.03-2.79-5.74-6.62-5.74h-.08c-3.83,0-6.62,1.72-6.62,5.74v3.51c0,2.67,1.36,3.87,3.91,5.34l3.59,1.99c1.64.92,2.23,1.64,2.23,3.31v2.19c0,2.19-1.08,3.19-3.03,3.19s-3.03-1-3.03-3.19v-2.79c0-.84-.44-1.32-1.32-1.32h-1.04c-.88,0-1.32.48-1.32,1.32v3.43c0,4.23,2.43,5.82,6.66,5.82h.08c4.23,0,6.66-1.63,6.66-5.82v-3.87c0-2.67-1.52-4.03-3.91-5.39"/>
      <path class="cls-15" d="M101.87,24.93h-6.82v-9.17h5.46c.88,0,1.32-.48,1.32-1.32v-.72c0-.84-.44-1.32-1.32-1.32h-5.46V3.63h6.7c.88,0,1.32-.44,1.32-1.32v-.68c0-.84-.44-1.32-1.32-1.32h-9.13c-.88,0-1.32.48-1.32,1.32v25.29c0,.84.44,1.32,1.32,1.32h9.25c.88,0,1.32-.48,1.32-1.32v-.68c0-.88-.44-1.32-1.32-1.32"/>
      <path class="cls-15" d="M116.98,16.23c2.07-.84,3.27-2.55,3.27-5.35v-4.67c0-4.11-2.55-5.9-6.78-5.9h-5.66c-.88,0-1.32.48-1.32,1.32v25.29c0,.84.44,1.32,1.32,1.32h1.12c.84,0,1.32-.48,1.32-1.32v-10.13h3.27l3.51,10.37c.24.76.72,1.08,1.48,1.08h1.12c.96,0,1.4-.64,1.12-1.51l-3.75-10.49ZM116.51,10.21c0,2.47-1.12,3.31-3.19,3.31h-3.07V3.63h3.07c2.07,0,3.19.84,3.19,3.31v3.27Z"/>
      <path class="cls-15" d="M127.07.32h-1.12c-.88,0-1.32.48-1.32,1.32v25.29c0,.84.44,1.32,1.32,1.32h1.12c.84,0,1.32-.48,1.32-1.32V1.63c0-.84-.48-1.32-1.32-1.32"/>
      <path class="cls-15" d="M143.58,24.93h-6.82v-9.17h5.46c.88,0,1.32-.48,1.32-1.32v-.72c0-.84-.44-1.32-1.32-1.32h-5.46V3.63h6.7c.88,0,1.32-.44,1.32-1.32v-.68c0-.84-.44-1.32-1.32-1.32h-9.13c-.88,0-1.32.48-1.32,1.32v25.29c0,.84.44,1.32,1.32,1.32h9.25c.88,0,1.32-.48,1.32-1.32v-.68c0-.88-.44-1.32-1.32-1.32"/>
    </g>
    <g class="cls-16">
      <rect class="cls-2" x="57.41" y="32.13" width="14.2" height="33.31"/>
    </g>
    <g class="cls-9">
      <rect class="cls-3" x="75.2" y="36.22" width="14.69" height="29.22"/>
    </g>
    <g class="cls-12">
      <rect class="cls-5" x="92.95" y="36.54" width="12.04" height="28.57"/>
    </g>
    <g class="cls-10">
      <rect class="cls-4" x="108.11" y="36.54" width="12.65" height="28.57"/>
    </g>
    <g class="cls-11">
      <rect class="cls-7" x="124.14" y="36.54" width="4.74" height="28.57"/>
    </g>
    <g class="cls-14">
      <rect class="cls-6" x="132.85" y="36.54" width="12.04" height="28.57"/>
    </g>
    <g class="cls-13">
      <rect class="cls-8" x="-.54" y="24.58" width="58.6" height="53.53"/>
    </g>
    <g>
      <path class="cls-15" d="M55.15,26.8L50.04,1.52c-.16-.8-.68-1.2-1.44-1.2h-2.23c-.76,0-1.28.4-1.44,1.2l-4.08,20.52c-.12.58.24,1.15.81,1.29.42.1.91.25,1.41.42,0,0,.9.34,1.08-.62l.26-1.47h6.02l.96,5.38c.16.8.64,1.2,1.44,1.2h1.16c.88,0,1.36-.52,1.16-1.44M45.02,18.51l2.43-13.48,2.43,13.48h-4.87Z"/>
      <path class="cls-15" d="M39.55,83.28h-1.14v-6.52h1.14v6.52ZM40.98,81.03h-1.71v-1.02h1.47c.39,0,.69-.1.9-.3.21-.2.31-.48.31-.83s-.1-.63-.31-.82c-.2-.19-.5-.29-.88-.29h-1.6v-1.02h1.82c.44,0,.82.09,1.14.27.32.18.57.43.75.74.18.32.27.69.27,1.12s-.09.79-.27,1.11c-.18.32-.43.58-.75.76-.32.18-.7.27-1.14.27"/>
      <path class="cls-15" d="M43.48,81.06c0-.46.1-.86.3-1.21s.48-.62.84-.82c.36-.2.76-.29,1.21-.29s.86.1,1.22.29c.35.2.63.47.83.82.2.35.3.75.3,1.21s-.1.86-.3,1.21c-.2.35-.48.62-.83.82-.35.2-.76.29-1.22.29s-.86-.1-1.21-.29c-.36-.2-.64-.47-.84-.82-.2-.35-.3-.75-.3-1.21M44.57,81.06c0,.27.06.5.17.7.11.2.26.36.45.47.19.11.41.17.66.17s.47-.06.66-.17c.19-.11.34-.27.45-.47.11-.2.16-.44.16-.7s-.05-.51-.16-.71c-.11-.2-.26-.36-.45-.47-.19-.11-.41-.17-.66-.17s-.47.06-.66.17-.34.27-.45.47c-.11.2-.17.44-.17.71"/>
      <path class="cls-15" d="M51.82,78.85v1.01h-.4c-.4,0-.71.11-.94.32-.23.21-.34.53-.34.96v2.14h-1.09v-4.4h1.03l.09.91h-.11c.06-.29.2-.53.42-.71.22-.18.51-.28.86-.28.08,0,.15,0,.23,0s.16.02.25.04"/>
      <path class="cls-15" d="M52.31,78.87h2.78v.91h-2.78v-.91ZM54.24,83.28h-1.09v-5.78h1.09v5.78Z"/>
      <path class="cls-15" d="M60,83.39c-.43,0-.8-.1-1.1-.29-.31-.19-.55-.46-.71-.81-.17-.35-.25-.75-.25-1.2s.09-.86.25-1.22.42-.63.74-.83c.32-.2.7-.3,1.14-.3.31,0,.59.06.85.18.26.12.45.29.59.51v-2.79h1.08v6.64h-1l-.07-.69c-.13.25-.33.45-.6.59-.27.14-.57.21-.91.21M60.24,82.39c.26,0,.48-.05.66-.17.18-.11.33-.27.43-.47.1-.21.16-.44.16-.7s-.05-.5-.16-.7c-.1-.2-.25-.36-.43-.47-.18-.12-.4-.17-.66-.17s-.47.06-.65.17c-.18.12-.33.27-.42.48-.1.2-.15.43-.15.7s.05.49.15.7c.1.2.24.36.42.47.18.11.4.17.65.17"/>
      <path class="cls-15" d="M65.68,83.39c-.43,0-.82-.1-1.16-.3-.33-.2-.6-.47-.79-.82-.19-.35-.28-.75-.28-1.2s.09-.86.28-1.21c.18-.35.44-.63.78-.82.33-.2.71-.3,1.14-.3s.83.09,1.15.28c.32.19.57.45.75.78.18.33.26.73.26,1.19v.33h-3.78s.02-.69.02-.69h2.68c0-.3-.1-.55-.29-.73-.19-.19-.45-.28-.78-.28-.25,0-.47.05-.65.16-.17.11-.31.27-.4.48-.09.21-.13.48-.13.78,0,.48.1.84.31,1.08.21.24.51.37.91.37.3,0,.54-.06.74-.17.19-.11.32-.27.38-.48h1.01c-.1.48-.33.86-.71,1.13-.38.27-.86.41-1.43.41"/>
      <path class="cls-15" d="M72.35,83.28h-1.11v-6.52h1.11l2.11,5.19,2.11-5.19h1.12v6.52h-1.11v-2.83c0-.22,0-.41,0-.57,0-.15.01-.29.02-.41,0-.12.02-.24.04-.36l-1.66,4.17h-1.05l-1.65-4.16c.03.2.05.45.06.75,0,.3.01.66.01,1.07v2.34Z"/>
      <path class="cls-15" d="M80.28,83.39c-.46,0-.83-.13-1.1-.38-.27-.25-.41-.58-.41-.99s.14-.73.42-.97c.28-.24.69-.38,1.21-.42l1.32-.11v-.1c0-.2-.04-.36-.11-.49-.07-.12-.18-.21-.32-.27-.14-.06-.3-.08-.48-.08-.32,0-.57.06-.74.19-.17.13-.26.31-.26.54h-.93c0-.32.08-.6.24-.83.16-.23.4-.42.7-.55.3-.13.65-.2,1.04-.2s.74.07,1.03.21c.29.14.51.35.66.62.15.28.23.62.23,1.03v2.68h-.95l-.08-.65c-.1.23-.28.41-.55.55-.27.14-.58.21-.92.21M80.63,82.57c.34,0,.61-.1.81-.28.2-.19.3-.46.3-.8v-.23l-.92.07c-.34.03-.58.1-.72.21-.14.11-.21.25-.21.43,0,.2.07.35.2.45.13.1.32.15.55.15"/>
      <path class="cls-15" d="M86.62,78.85v1.01h-.4c-.4,0-.71.11-.94.32-.23.21-.34.53-.34.96v2.14h-1.09v-4.4h1.03l.09.91h-.11c.06-.29.2-.53.42-.71s.5-.28.86-.28c.08,0,.15,0,.23,0,.08,0,.16.02.25.04"/>
      <path class="cls-15" d="M87.03,81.94h1.04c0,.19.08.34.21.45.14.11.33.17.57.17.26,0,.46-.05.59-.14.13-.09.2-.22.2-.38,0-.11-.04-.2-.11-.29-.07-.08-.2-.15-.4-.19l-.79-.19c-.4-.09-.69-.23-.89-.43-.19-.2-.29-.47-.29-.82,0-.29.08-.53.23-.74.15-.21.36-.37.62-.48.26-.11.56-.16.9-.16s.61.06.86.18c.25.12.44.29.58.5s.21.46.22.75h-1.04c0-.19-.06-.34-.18-.45-.12-.11-.29-.16-.5-.16s-.38.05-.5.14c-.12.09-.18.22-.18.38,0,.24.19.41.57.5l.79.19c.37.08.65.22.83.4.19.18.28.45.28.78,0,.3-.08.55-.23.77-.15.22-.37.38-.65.5-.28.12-.6.17-.96.17-.55,0-.98-.13-1.31-.4-.32-.27-.49-.62-.49-1.05"/>
      <path class="cls-15" d="M93.47,83.39c-.43,0-.82-.1-1.16-.3-.33-.2-.6-.47-.79-.82-.19-.35-.29-.75-.29-1.2s.09-.86.28-1.21c.19-.35.44-.63.78-.82.33-.2.71-.3,1.14-.3s.83.09,1.15.28c.32.19.57.45.75.78.18.33.26.73.26,1.19v.33h-3.78s.02-.69.02-.69h2.68c0-.3-.1-.55-.29-.73-.19-.19-.45-.28-.78-.28-.25,0-.47.05-.65.16-.17.11-.31.27-.4.48-.09.21-.13.48-.13.78,0,.48.1.84.31,1.08.21.24.51.37.91.37.3,0,.54-.06.74-.17.19-.11.32-.27.38-.48h1.01c-.1.48-.33.86-.71,1.13-.38.27-.86.41-1.43.41"/>
      <path class="cls-15" d="M97,77.99c-.18,0-.34-.06-.47-.19-.13-.13-.19-.28-.19-.47s.06-.34.19-.46c.13-.12.28-.19.47-.19s.34.06.47.19c.13.12.19.28.19.46s-.06.34-.19.47c-.13.13-.28.19-.47.19M96.46,78.87h1.09v4.41h-1.09v-4.41Z"/>
      <rect class="cls-15" x="98.69" y="76.64" width="1.08" height="6.64"/>
      <rect class="cls-15" x="100.93" y="76.64" width="1.08" height="6.64"/>
      <path class="cls-15" d="M104.47,83.39c-.46,0-.83-.13-1.1-.38-.27-.25-.41-.58-.41-.99s.14-.73.42-.97c.28-.24.69-.38,1.21-.42l1.32-.11v-.1c0-.2-.04-.36-.11-.49-.07-.12-.18-.21-.32-.27-.14-.06-.3-.08-.48-.08-.32,0-.57.06-.74.19-.17.13-.26.31-.26.54h-.93c0-.32.08-.6.24-.83.16-.23.4-.42.7-.55.3-.13.65-.2,1.04-.2s.74.07,1.03.21c.29.14.51.35.66.62.15.28.23.62.23,1.03v2.68h-.95l-.08-.65c-.1.23-.28.41-.55.55-.27.14-.58.21-.92.21M104.82,82.57c.34,0,.61-.1.81-.28.2-.19.3-.46.3-.8v-.23l-.92.07c-.34.03-.58.1-.72.21-.14.11-.21.25-.21.43,0,.2.07.35.2.45.13.1.32.15.55.15"/>
      <path class="cls-15" d="M109.13,83.28h-1.09v-4.41h1.01l.09.57c.14-.22.33-.39.58-.52.25-.12.53-.19.83-.19.55,0,.97.16,1.25.49.28.33.42.77.42,1.34v2.71h-1.09v-2.45c0-.37-.08-.64-.25-.83-.17-.18-.39-.27-.68-.27-.34,0-.6.11-.79.32-.19.21-.29.5-.29.86v2.37Z"/>
    </g>
  </g>
</svg>